<svg xmlns="http://www.w3.org/2000/svg" viewBox="0 0 48 48">
  <path fill="#fbc02d" d="M43.6 20.5H42V20H24v8h11.3C34.4 32.5 29.8 36 24 36a12 12 0 010-24 12 12 0 018.5 3.5l5.7-5.7A20 20 0 1044 24c0-1.2-.1-2.5-.4-3.5z"></path>
  <path fill="#e53935" d="M6.3 14.7l6.6 4.8A12 12 0 0124 12c3.4 0 6.5 1.3 8.8 3.5l5.7-5.7A20 20 0 006.3 14.7z"></path>
  <path fill="#4caf50" d="M24 44c5.6 0 10.4-1.8 13.9-4.9l-6.4-5.4A12.1 12.1 0 0112.8 28l-6.5 5.1C9.8 39.5 16.3 44 24 44z"></path>
  <path fill="#1565c0" d="M43.6 20.5H42V20H24v8h11.3c-1.1 3.3-3.5 6-6.7 7.6l6.4 5.4C39.2 38.3 44 32 44 24c0-1.2-.1-2.5-.4-3.5z"></path>
</svg>
