<svg width="51" height="50" viewBox="0 0 51 50" fill="none" xmlns="http://www.w3.org/2000/svg">
<path d="M25.1091 25C22.8074 25 20.837 24.184 19.198 22.5521C17.5589 20.9201 16.7394 18.9583 16.7394 16.6666C16.7394 14.375 17.5589 12.4132 19.198 10.7812C20.837 9.14929 22.8074 8.33331 25.1091 8.33331C27.4107 8.33331 29.3811 9.14929 31.0202 10.7812C32.6593 12.4132 33.4788 14.375 33.4788 16.6666C33.4788 18.9583 32.6593 20.9201 31.0202 22.5521C29.3811 24.184 27.4107 25 25.1091 25ZM8.36963 41.6666V35.8333C8.36963 34.6528 8.67478 33.5677 9.28507 32.5781C9.89536 31.5885 10.7062 30.8333 11.7175 30.3125C13.8797 29.2361 16.0767 28.4288 18.3087 27.8906C20.5406 27.3524 22.8074 27.0833 25.1091 27.0833C27.4107 27.0833 29.6775 27.3524 31.9095 27.8906C34.1414 28.4288 36.3385 29.2361 38.5006 30.3125C39.512 30.8333 40.3228 31.5885 40.9331 32.5781C41.5434 33.5677 41.8485 34.6528 41.8485 35.8333V41.6666H8.36963ZM12.5545 37.5H37.6637V35.8333C37.6637 35.4514 37.5678 35.1041 37.376 34.7916C37.1841 34.4791 36.9313 34.2361 36.6174 34.0625C34.7343 33.125 32.8336 32.4219 30.9156 31.9531C28.9975 31.4844 27.062 31.25 25.1091 31.25C23.1561 31.25 21.2206 31.4844 19.3026 31.9531C17.3845 32.4219 15.4839 33.125 13.6007 34.0625C13.2868 34.2361 13.034 34.4791 12.8422 34.7916C12.6504 35.1041 12.5545 35.4514 12.5545 35.8333V37.5ZM25.1091 20.8333C26.2599 20.8333 27.2451 20.4253 28.0646 19.6094C28.8842 18.7934 29.2939 17.8125 29.2939 16.6666C29.2939 15.5208 28.8842 14.5399 28.0646 13.7239C27.2451 12.908 26.2599 12.5 25.1091 12.5C23.9582 12.5 22.9731 12.908 22.1535 13.7239C21.334 14.5399 20.9242 15.5208 20.9242 16.6666C20.9242 17.8125 21.334 18.7934 22.1535 19.6094C22.9731 20.4253 23.9582 20.8333 25.1091 20.8333Z" fill="white"/>
</svg>
